<svg viewBox="0 0 36 36" xmlns="http://www.w3.org/2000/svg"><path d="m32.05 19.85 1.84-1.85-1.84-1.85 1.3-2.26-2.26-1.31.55-2.53-2.64-.67v-2.38h-2.38l-.67-2.64-2.53.61-1.31-2.29-2.26 1.29-1.85-1.86-1.85 1.85-2.26-1.31-1.31 2.26-2.53-.55-.67 2.64h-2.38v2.38l-2.64.67.61 2.53-2.29 1.31 1.29 2.26-1.86 1.85 1.85 1.85-1.31 2.26 2.26 1.31-.55 2.53 2.64.67v2.38h2.38l.67 2.64 2.53-.61 1.31 2.29 2.26-1.29 1.85 1.86 1.85-1.85 2.26 1.31 1.31-2.26 2.53.55.67-2.64h2.38v-2.38l2.64-.67-.61-2.53 2.29-1.31z" fill="#f38f40"/></svg>